<?xml version="1.0" encoding="utf-8"?>
<!-- Generator: Adobe Illustrator 26.0.3, SVG Export Plug-In . SVG Version: 6.00 Build 0)  -->
<svg version="1.0" id="Layer_1" xmlns="http://www.w3.org/2000/svg" xmlns:xlink="http://www.w3.org/1999/xlink" x="0px" y="0px"
	 viewBox="0 0 809.4 556.4" style="enable-background:new 0 0 809.4 556.4;" xml:space="preserve">
<style type="text/css">
	.st0{clip-path:url(#SVGID_00000114777548166144634720000013791006059627012010_);}
	.st1{clip-path:url(#SVGID_00000159448221804144639350000014113034284650569146_);}
	.st2{fill:#EC6608;}
	.st3{fill:#009BA4;}
</style>
<g>
	<defs>
		<rect id="SVGID_1_" x="59.2" y="197.1" width="693" height="162.9"/>
	</defs>
	<clipPath id="SVGID_00000017479237261880402140000017875336940400604563_">
		<use xlink:href="#SVGID_1_"  style="overflow:visible;"/>
	</clipPath>
	<g style="clip-path:url(#SVGID_00000017479237261880402140000017875336940400604563_);">
		<g>
			<defs>
				<rect id="SVGID_00000163772640169107357150000006969276470864188830_" x="59.2" y="197.2" width="692.8" height="162.8"/>
			</defs>
			<clipPath id="SVGID_00000059270095549706445010000006839983040423779211_">
				<use xlink:href="#SVGID_00000163772640169107357150000006969276470864188830_"  style="overflow:visible;"/>
			</clipPath>
			<g style="clip-path:url(#SVGID_00000059270095549706445010000006839983040423779211_);">
				<path class="st2" d="M727,291.4c5.3,5.3,14,5.3,19.3,0c5.3-5.3,5.3-14,0-19.3s-14-5.3-19.3,0c-2.6,2.6-4,6-4,9.7
					C722.9,285.4,724.4,288.9,727,291.4"/>
				<path class="st2" d="M704,314.3c4.1,4.1,10.8,4.1,14.9,0c4.1-4.1,4.1-10.8,0-14.9c-4.1-4.1-10.8-4.1-14.9,0
					c-2,2-3.1,4.7-3.1,7.5C701,309.7,702.1,312.4,704,314.3"/>
				<path class="st2" d="M704.1,264.1c4.1,4.1,10.8,4.1,14.8,0s4.1-10.8,0-14.8s-10.8-4.1-14.8,0c-2,2-3.1,4.6-3.1,7.4
					C701,259.5,702.1,262.1,704.1,264.1"/>
				<path class="st2" d="M680.7,337.8c3.2,3.2,8.3,3.2,11.4,0c3.2-3.2,3.2-8.3,0-11.4c-3.2-3.2-8.3-3.2-11.4,0
					c-1.5,1.5-2.4,3.6-2.4,5.7C678.3,334.2,679.1,336.3,680.7,337.8"/>
				<path class="st2" d="M680.7,287.6c3.2,3.2,8.3,3.2,11.4,0c3.2-3.2,3.2-8.3,0-11.4c-3.2-3.2-8.3-3.2-11.4,0
					c-1.5,1.5-2.4,3.6-2.4,5.7C678.3,284,679.1,286.1,680.7,287.6"/>
				<path class="st2" d="M680.7,237.3c3.2,3.2,8.3,3.2,11.4,0c3.2-3.2,3.2-8.3,0-11.4c-3.2-3.2-8.3-3.2-11.4,0
					c-1.5,1.5-2.4,3.6-2.4,5.7C678.3,233.7,679.1,235.8,680.7,237.3"/>
				<path class="st2" d="M656.8,311.3c2.4,2.4,6.4,2.4,8.8,0s2.4-6.4,0-8.8c-2.4-2.4-6.4-2.4-8.8,0c-1.2,1.2-1.8,2.7-1.8,4.4
					C655,308.6,655.7,310.2,656.8,311.3"/>
				<path class="st2" d="M656.9,261.1c2.4,2.4,6.3,2.4,8.8,0c2.4-2.4,2.4-6.3,0-8.8s-6.3-2.4-8.8,0c-1.2,1.2-1.8,2.7-1.8,4.4
					C655,258.3,655.7,259.9,656.9,261.1"/>
				<path class="st2" d="M632.7,285.2c1.9,1.9,4.9,1.9,6.8,0s1.9-4.9,0-6.8c-1.9-1.9-4.9-1.9-6.8,0
					C630.9,280.3,630.9,283.3,632.7,285.2C632.7,285.2,632.7,285.2,632.7,285.2"/>
				<path class="st3" d="M230.8,257v-11.8c5.8,1.9,11.8,3,17.9,3.2c7.1,0,10.7-1.9,10.7-5.6c0-1.4-0.5-2.6-1.6-3.5
					c-1.1-1-3.8-2.4-8.2-4.2c-7.8-3.2-13-6-15.4-8.3c-3.1-3-4.8-7.1-4.6-11.4c0-5.9,2.3-10.4,6.8-13.5c4.5-3.1,10.3-4.6,17.4-4.6
					c5.7,0.2,11.5,0.9,17.1,2.2v11.4c-4.9-2.1-10.1-3.2-15.5-3.3c-6.7,0-10,1.8-10.1,5.5c0,1.4,0.8,2.7,2,3.4
					c1.1,0.7,4.2,2.2,9.3,4.5c7.3,3.2,12.1,6.1,14.6,8.4c2.9,2.9,4.5,6.9,4.3,11c0.2,6.1-3.1,11.9-8.4,14.8
					c-4.6,2.8-10.5,4.1-17.7,4.1C243.1,259.1,236.9,258.4,230.8,257"/>
				<path class="st3" d="M284.9,257.9h16.7v-59.7h-16.7V257.9"/>
				<polyline class="st3" points="316.9,198.2 316.9,257.9 360.4,257.9 360.4,246.5 333,246.5 333,232.4 356.2,232.4 356.2,222.5 
					333,222.5 333,209 359.7,209 359.7,198.2 316.9,198.2 				"/>
				<polyline class="st3" points="423.3,198.2 407.9,236.4 392.9,198.2 371.3,198.2 371.3,257.9 383,257.9 383,215.7 400.2,258.5 
					410.5,258.5 428.1,215.7 428.1,257.9 443.9,257.9 443.9,198.2 423.3,198.2 				"/>
				<polyline class="st3" points="459.2,198.2 459.2,257.9 502.6,257.9 502.6,246.5 475.2,246.5 475.2,232.4 498.5,232.4 
					498.5,222.5 475.2,222.5 475.2,209 501.9,209 501.9,198.2 459.2,198.2 				"/>
				<polyline class="st3" points="553.5,198.2 553.5,238.2 533,198.2 513.6,198.2 513.6,257.9 525.4,257.9 525.4,217.4 546.4,257.9 
					565.2,257.9 565.2,198.2 553.5,198.2 				"/>
				<path class="st3" d="M577.1,257v-11.8c5.7,2,11.8,3,17.8,3.2c7.1,0,10.7-1.9,10.7-5.6c0-1.3-0.5-2.6-1.5-3.5
					c-1.1-1-3.8-2.4-8.2-4.2c-7.8-3.2-13-6-15.4-8.3c-3.1-3-4.8-7.1-4.6-11.4c0-5.9,2.2-10.4,6.8-13.5s10.3-4.6,17.4-4.6
					c5.3,0.1,10.5,0.8,15.7,1.9l1.5,0.2v11.4c-4.9-2.1-10.2-3.2-15.5-3.3c-6.7,0-10,1.8-10,5.5c0,1.4,0.8,2.7,2,3.4
					c1.1,0.7,4.2,2.2,9.3,4.5c7.2,3.2,12.1,6.1,14.5,8.4c2.9,2.9,4.5,6.9,4.3,11c0.2,6.1-3,11.8-8.4,14.8
					c-4.6,2.8-10.5,4.1-17.8,4.1C589.4,259.1,583.2,258.4,577.1,257"/>
				<path class="st2" d="M472.3,319.1c0,7.1-9.6,8.8-16.3,9c0.3-7.1,4-14,11-14C470.2,314.1,472.3,316.1,472.3,319.1 M484.8,319
					c0-9.8-6.7-15-17.1-15c-16.9,0-25.6,13.8-25.6,28.9c0,15.4,7,26.4,24.5,26.4c6.7,0.1,13.3-1.9,18.8-5.8l-4.1-9.6
					c-3.7,2.7-8.2,4.3-12.9,4.4c-7.8,0-11.1-5.2-11.8-10.2C469.1,337.7,484.8,334.6,484.8,319"/>
				<path class="st2" d="M522.2,319.1c0,7.1-9.6,8.8-16.3,9c0.3-7.1,4-14,11-14C520.1,314.1,522.2,316.1,522.2,319.1 M534.7,319
					c0-9.8-6.7-15-17.1-15c-16.9,0-25.6,13.8-25.6,28.9c0,15.4,7,26.4,24.5,26.4c6.7,0.1,13.3-1.9,18.8-5.8l-4.1-9.6
					c-3.7,2.7-8.2,4.3-12.9,4.4c-7.8,0-11.1-5.2-11.8-10.2C519,337.7,534.7,334.6,534.7,319"/>
				<path class="st2" d="M150.8,319.1c0,7.1-9.6,8.8-16.3,9c0.3-7.1,4-14,11-14C148.7,314.1,150.8,316.1,150.8,319.1 M163.3,319
					c0-9.8-6.7-15-17.1-15c-16.9,0-25.6,13.8-25.6,28.9c0,15.4,7,26.4,24.5,26.4c6.7,0.1,13.3-1.9,18.8-5.8l-4.1-9.6
					c-3.7,2.7-8.2,4.3-12.9,4.4c-7.8,0-11.1-5.2-11.8-10.2C147.6,337.7,163.3,334.6,163.3,319"/>
				<polyline class="st2" points="94.9,289.2 94.9,316.5 73.9,316.5 73.9,289.2 59.2,289.2 59.2,357.7 73.9,357.7 73.9,329.4 
					94.9,329.4 94.9,357.7 109.6,357.7 109.6,289.2 94.9,289.2 				"/>
				<path class="st2" d="M203.6,341c0,3.8-3.1,7.7-8.4,7.7c-7.6,0-9.4-7.3-9.4-15.6c0-10.1,2.9-18.5,11.3-18.5
					c2.2,0,4.4,0.3,6.5,1.1V341 M218.8,357.7l-1-10.4v-39.5c-6.1-2.3-12.5-3.5-18.9-3.8c-18.2,0-27.3,11.8-27.3,30
					c0,13.9,5,25.2,20,25.2c5.6,0,10.7-2.1,13.8-6.8l0.5,0.1l0.7,5.2L218.8,357.7z"/>
				<path class="st2" d="M230.8,289.3v52.8c0,8.6,0.8,17.1,15.6,17.1c4.5,0,10-1.3,13.1-3.3l-3.1-9.6c-2,0.9-4.1,1.5-6.3,1.6
					c-3.8,0-5-2.3-5-7.9v-50.8H230.8"/>
				<path class="st2" d="M320,357.7V324c-0.1-4.8,3.7-8.9,8.5-9c0.1,0,0.2,0,0.3,0c5.5,0,6.6,4.1,6.6,9.5v33.3h14.3v-35.5
					c0-12.2-5.9-18.3-16.7-18.3c-4.9-0.1-9.6,1.8-13,5.4v-20.1h-14.3v68.5H320"/>
				<path class="st2" d="M362.3,357.7h14.3v-52.2h-14.3V357.7"/>
				<path class="st2" d="M361.7,289.2c-0.1,2,0.7,3.9,2.1,5.3c1.5,1.4,3.6,2.1,5.7,2.1c2.1,0.1,4.1-0.7,5.7-2.1
					c2.9-2.9,2.9-7.6,0-10.5c0,0,0,0,0,0c-1.5-1.4-3.6-2.2-5.7-2.2c-2.1-0.1-4.1,0.7-5.6,2.2C362.4,285.4,361.6,287.2,361.7,289.2"
					/>
				<path class="st2" d="M403.6,357.7v-33.5c0-4.9,3.5-9.3,9-9.3s6.4,4.2,6.4,9.9v32.9h14.3v-35.6c0-12.4-6.2-18.1-16.4-18.1
					c-6.2-0.2-12,2.7-15.5,7.7l-1-6.2h-12l0.9,9.7v42.5H403.6"/>
				<path class="st2" d="M560.2,325.3c0.2-5.5,3.5-9,8.6-9c2.5,0,5.1,0.7,7.3,1.9l2.6-12.4c-2.7-1.3-5.6-1.9-8.5-1.9
					c-4.8,0-9.9,2.9-12.3,9l-1.3-7.4h-11.6l1,9.1v43.1h14.3L560.2,325.3"/>
				<path class="st2" d="M618.2,308.5v-0.1c-5.1-3.2-11-4.8-17-4.4c-10.6,0.5-18.9,6.9-18.3,17.8s8.5,13.5,16.3,15.3
					c4.5,1.1,8.2,2,8.5,6s-2.5,5.6-6.3,5.8c-4.7,0.2-10.5-1.8-14.3-3.8l-4.3,9.8c3,2,10.7,4.9,19.9,4.4c11.9-0.6,19.7-6.9,19.1-18.5
					c-0.6-10.7-9.1-13-16.7-15c-4.7-1.2-8.2-2.4-8.4-6.4c-0.2-3.4,2.5-4.9,5.9-5.1s7.3,1.4,11.3,4.2L618.2,308.5"/>
				<path class="st2" d="M280.4,316.7h13.5v-11.2h-13.5v-16.3h-14.3v16.3h-7.9v11.2h7.9v25.4c0,8.6,0.8,17.1,15.6,17.1
					c4.5,0,10-1.3,13.1-3.3l-3.1-9.6c-2,0.9-4.1,1.5-6.3,1.6c-3.8,0-5.1-2.3-5.1-7.9V316.7"/>
			</g>
		</g>
	</g>
</g>
</svg>
