<?xml version="1.0" standalone="no"?>
<!DOCTYPE svg PUBLIC "-//W3C//DTD SVG 20010904//EN"
 "http://www.w3.org/TR/2001/REC-SVG-20010904/DTD/svg10.dtd">
<svg version="1.0" xmlns="http://www.w3.org/2000/svg"
 width="2000.000000pt" height="279.000000pt" viewBox="0 0 2000.000000 279.000000"
 preserveAspectRatio="xMidYMid meet">

<g transform="translate(0.000000,279.000000) scale(0.100000,-0.100000)"
fill="#000000" stroke="none">
<path d="M225 2779 c-159 -13 -225 -21 -225 -28 0 -4 26 -14 58 -20 187 -42
488 -199 737 -386 176 -132 317 -258 518 -464 103 -106 191 -191 197 -189 13
4 120 149 120 163 0 6 -53 63 -117 126 -361 351 -689 562 -1088 700 -119 41
-112 47 35 28 487 -61 974 -263 1355 -562 119 -94 225 -187 225 -198 0 -4 -25
-37 -56 -71 -31 -35 -153 -191 -272 -348 -271 -359 -372 -485 -527 -659 -319
-357 -633 -587 -1035 -757 -74 -31 -139 -60 -143 -64 -21 -19 228 -40 468 -40
423 0 800 65 1150 197 229 86 520 252 705 402 41 33 80 61 86 61 6 0 41 -23
77 -50 307 -232 738 -439 1113 -534 217 -55 484 -87 654 -79 145 6 361 27 366
34 2 4 -22 15 -53 24 -293 81 -619 274 -958 567 -61 52 -195 182 -298 288
-103 106 -190 191 -193 188 -26 -27 -114 -155 -114 -167 0 -29 253 -267 432
-409 227 -178 529 -342 768 -418 128 -39 134 -44 50 -38 -456 36 -1011 246
-1373 520 -124 94 -287 235 -287 248 0 7 31 48 68 92 38 43 162 203 276 354
491 652 737 910 1103 1157 121 82 356 204 503 262 41 16 76 34 78 39 5 16
-278 37 -498 36 -505 -2 -964 -105 -1369 -309 -178 -89 -331 -189 -513 -336
l-27 -22 -68 50 c-282 209 -624 386 -938 486 -369 119 -650 154 -990 126z
m3982 -85 c-3 -3 -59 -24 -124 -45 -316 -106 -648 -313 -969 -605 -142 -129
-254 -267 -602 -736 -200 -268 -329 -424 -462 -556 -387 -386 -946 -626 -1505
-648 l-140 -5 130 44 c191 66 327 132 515 250 265 168 531 403 716 632 44 55
180 233 300 395 121 162 256 338 299 390 110 133 285 310 380 385 355 278 802
455 1245 494 119 10 225 13 217 5z"/>
<path d="M5865 2279 c-351 -48 -555 -237 -555 -512 0 -219 102 -358 318 -437
42 -15 172 -47 287 -70 262 -52 388 -84 433 -112 91 -56 97 -170 13 -241 -59
-49 -120 -62 -301 -62 -172 0 -237 9 -395 52 -95 26 -242 79 -262 95 -8 6 -33
-33 -87 -135 -42 -79 -76 -149 -76 -155 0 -25 305 -129 476 -162 589 -113
1033 63 1084 430 22 156 -24 297 -125 388 -109 97 -246 146 -572 207 -106 19
-218 44 -248 56 -172 64 -186 231 -25 301 57 25 197 36 304 26 110 -12 274
-52 373 -92 l81 -32 77 143 c44 82 74 148 69 152 -32 30 -307 120 -444 146
-103 20 -330 27 -425 14z"/>
<path d="M7890 2269 c-151 -17 -270 -103 -291 -210 -4 -24 -8 -379 -9 -788 l0
-744 93 5 c121 7 195 35 258 98 29 29 52 63 58 86 7 26 11 287 11 802 l0 762
-22 -1 c-13 -1 -57 -5 -98 -10z"/>
<path d="M8940 1400 l0 -870 695 0 695 0 0 170 0 170 -505 0 -505 0 0 700 0
700 -190 0 -190 0 0 -870z"/>
<path d="M11000 1400 l0 -870 539 0 c571 0 644 5 763 50 163 62 254 190 272
382 14 150 -26 287 -111 378 -50 54 -153 120 -189 120 -7 0 9 22 37 50 87 87
125 201 117 351 -13 228 -170 362 -463 398 -53 6 -272 11 -527 11 l-438 0 0
-870z m922 520 c45 -13 93 -52 114 -93 9 -17 16 -55 16 -88 0 -81 -30 -132
-96 -164 -50 -24 -55 -25 -321 -25 l-270 -1 -3 190 -2 191 262 0 c150 0 279
-5 300 -10z m205 -713 c95 -66 105 -227 18 -296 -56 -43 -83 -46 -440 -46
l-340 0 -3 188 -2 188 363 -3 364 -3 40 -28z"/>
<path d="M13350 1771 c0 -403 3 -514 15 -578 76 -400 347 -652 734 -681 120
-10 286 3 376 27 296 82 506 318 572 646 15 79 18 148 18 585 l0 495 -192 3
-192 2 -4 -507 c-4 -559 -4 -563 -69 -685 -96 -181 -304 -265 -526 -213 -85
20 -135 48 -200 108 -64 61 -92 107 -123 202 -23 69 -23 79 -27 583 l-3 512
-190 0 -189 0 0 -499z"/>
<path d="M15946 2261 c-3 -5 -5 -395 -3 -867 l2 -859 192 -3 193 -2 2 257 3
258 222 3 c177 2 224 0 235 -11 7 -8 90 -125 183 -260 l170 -246 228 -1 c125
0 227 3 227 6 0 3 -91 125 -202 272 -112 146 -204 269 -206 272 -1 4 15 12 36
18 53 16 150 80 201 133 60 62 118 185 137 289 39 212 -18 420 -151 554 -68
69 -125 106 -222 142 -126 47 -216 54 -750 54 -272 0 -494 -4 -497 -9z m1107
-365 c92 -46 141 -129 141 -242 1 -141 -80 -239 -217 -263 -37 -6 -186 -11
-355 -11 l-292 0 0 270 0 271 343 -3 c312 -3 345 -5 380 -22z"/>
<path d="M18180 2266 c0 -3 67 -98 148 -213 82 -114 244 -343 360 -507 l212
-300 0 -358 0 -358 190 0 190 0 0 360 0 360 267 378 c147 207 308 436 359 507
l92 130 -220 3 c-129 1 -225 -2 -232 -7 -6 -5 -110 -154 -231 -330 -121 -176
-223 -320 -227 -321 -3 0 -108 149 -233 330 l-226 330 -225 0 c-123 0 -224 -2
-224 -4z"/>
</g>
</svg>
